<mxfile host="app.diagrams.net" modified="2022-05-13T07:14:12.740Z" agent="5.0 (Macintosh; Intel Mac OS X 10_15_7) AppleWebKit/537.36 (KHTML, like Gecko) Chrome/101.0.4951.64 Safari/537.36" etag="ODccXImz71nvG_7pXH3c" version="17.5.0" type="github">
  <diagram id="_gZ5ycfUEV9fp0DhKBeH" name="Page-1">
    <mxGraphModel dx="888" dy="662" grid="1" gridSize="10" guides="1" tooltips="1" connect="1" arrows="1" fold="1" page="1" pageScale="1" pageWidth="827" pageHeight="1169" math="0" shadow="0">
      <root>
        <mxCell id="0" />
        <mxCell id="1" parent="0" />
        <mxCell id="S_h4361jQMfFblOt12lK-4" value="" style="edgeStyle=orthogonalEdgeStyle;rounded=0;orthogonalLoop=1;jettySize=auto;html=1;" edge="1" parent="1" source="S_h4361jQMfFblOt12lK-2" target="S_h4361jQMfFblOt12lK-3">
          <mxGeometry relative="1" as="geometry" />
        </mxCell>
        <mxCell id="S_h4361jQMfFblOt12lK-2" value="下载sim_meta.json" style="rounded=0;whiteSpace=wrap;html=1;" vertex="1" parent="1">
          <mxGeometry x="110" y="230" width="120" height="60" as="geometry" />
        </mxCell>
        <mxCell id="S_h4361jQMfFblOt12lK-6" value="" style="edgeStyle=orthogonalEdgeStyle;rounded=0;orthogonalLoop=1;jettySize=auto;html=1;" edge="1" parent="1">
          <mxGeometry relative="1" as="geometry">
            <mxPoint x="230" y="354" as="sourcePoint" />
            <mxPoint x="310" y="354" as="targetPoint" />
          </mxGeometry>
        </mxCell>
        <mxCell id="S_h4361jQMfFblOt12lK-10" value="" style="edgeStyle=orthogonalEdgeStyle;rounded=0;orthogonalLoop=1;jettySize=auto;html=1;" edge="1" parent="1" source="S_h4361jQMfFblOt12lK-3" target="S_h4361jQMfFblOt12lK-9">
          <mxGeometry relative="1" as="geometry" />
        </mxCell>
        <mxCell id="S_h4361jQMfFblOt12lK-3" value="过滤burnin为false的moments" style="rounded=0;whiteSpace=wrap;html=1;" vertex="1" parent="1">
          <mxGeometry x="110" y="330" width="120" height="60" as="geometry" />
        </mxCell>
        <mxCell id="S_h4361jQMfFblOt12lK-11" value="" style="edgeStyle=orthogonalEdgeStyle;rounded=0;orthogonalLoop=1;jettySize=auto;html=1;" edge="1" parent="1">
          <mxGeometry relative="1" as="geometry">
            <mxPoint x="310" y="364" as="sourcePoint" />
            <mxPoint x="230" y="364" as="targetPoint" />
          </mxGeometry>
        </mxCell>
        <mxCell id="S_h4361jQMfFblOt12lK-5" value="调用soc_edge_cli&lt;br&gt;-- trigger预处理" style="whiteSpace=wrap;html=1;rounded=0;" vertex="1" parent="1">
          <mxGeometry x="310" y="330" width="120" height="60" as="geometry" />
        </mxCell>
        <mxCell id="S_h4361jQMfFblOt12lK-17" value="" style="edgeStyle=orthogonalEdgeStyle;rounded=0;orthogonalLoop=1;jettySize=auto;html=1;" edge="1" parent="1" source="S_h4361jQMfFblOt12lK-9" target="S_h4361jQMfFblOt12lK-16">
          <mxGeometry relative="1" as="geometry">
            <Array as="points">
              <mxPoint x="270" y="450" />
              <mxPoint x="270" y="450" />
            </Array>
          </mxGeometry>
        </mxCell>
        <mxCell id="S_h4361jQMfFblOt12lK-25" value="" style="edgeStyle=orthogonalEdgeStyle;rounded=0;orthogonalLoop=1;jettySize=auto;html=1;" edge="1" parent="1" source="S_h4361jQMfFblOt12lK-9" target="S_h4361jQMfFblOt12lK-24">
          <mxGeometry relative="1" as="geometry" />
        </mxCell>
        <mxCell id="S_h4361jQMfFblOt12lK-9" value="构造查询moments状态的输入" style="whiteSpace=wrap;html=1;rounded=0;" vertex="1" parent="1">
          <mxGeometry x="110" y="430" width="120" height="60" as="geometry" />
        </mxCell>
        <mxCell id="S_h4361jQMfFblOt12lK-12" value="step1" style="text;html=1;resizable=0;autosize=1;align=center;verticalAlign=middle;points=[];fillColor=none;strokeColor=none;rounded=0;" vertex="1" parent="1">
          <mxGeometry x="180" y="300" width="40" height="20" as="geometry" />
        </mxCell>
        <mxCell id="S_h4361jQMfFblOt12lK-13" value="step2" style="text;html=1;resizable=0;autosize=1;align=center;verticalAlign=middle;points=[];fillColor=none;strokeColor=none;rounded=0;" vertex="1" parent="1">
          <mxGeometry x="250" y="330" width="40" height="20" as="geometry" />
        </mxCell>
        <mxCell id="S_h4361jQMfFblOt12lK-14" value="step3" style="text;html=1;resizable=0;autosize=1;align=center;verticalAlign=middle;points=[];fillColor=none;strokeColor=none;rounded=0;" vertex="1" parent="1">
          <mxGeometry x="250" y="370" width="40" height="20" as="geometry" />
        </mxCell>
        <mxCell id="S_h4361jQMfFblOt12lK-15" value="step4" style="text;html=1;resizable=0;autosize=1;align=center;verticalAlign=middle;points=[];fillColor=none;strokeColor=none;rounded=0;" vertex="1" parent="1">
          <mxGeometry x="180" y="400" width="40" height="20" as="geometry" />
        </mxCell>
        <mxCell id="S_h4361jQMfFblOt12lK-32" value="" style="edgeStyle=orthogonalEdgeStyle;rounded=0;orthogonalLoop=1;jettySize=auto;html=1;entryX=1;entryY=0.5;entryDx=0;entryDy=0;" edge="1" parent="1" source="S_h4361jQMfFblOt12lK-16" target="S_h4361jQMfFblOt12lK-9">
          <mxGeometry relative="1" as="geometry" />
        </mxCell>
        <mxCell id="S_h4361jQMfFblOt12lK-16" value="调用soc_edge_cli&lt;br&gt;-- status查询状态" style="whiteSpace=wrap;html=1;rounded=0;" vertex="1" parent="1">
          <mxGeometry x="310" y="430" width="120" height="60" as="geometry" />
        </mxCell>
        <mxCell id="S_h4361jQMfFblOt12lK-20" value="step5" style="text;html=1;resizable=0;autosize=1;align=center;verticalAlign=middle;points=[];fillColor=none;strokeColor=none;rounded=0;" vertex="1" parent="1">
          <mxGeometry x="250" y="420" width="40" height="20" as="geometry" />
        </mxCell>
        <mxCell id="S_h4361jQMfFblOt12lK-21" value="step6" style="text;html=1;resizable=0;autosize=1;align=center;verticalAlign=middle;points=[];fillColor=none;strokeColor=none;rounded=0;" vertex="1" parent="1">
          <mxGeometry x="250" y="460" width="40" height="20" as="geometry" />
        </mxCell>
        <mxCell id="S_h4361jQMfFblOt12lK-40" value="" style="edgeStyle=orthogonalEdgeStyle;rounded=0;orthogonalLoop=1;jettySize=auto;html=1;" edge="1" parent="1" source="S_h4361jQMfFblOt12lK-24" target="S_h4361jQMfFblOt12lK-39">
          <mxGeometry relative="1" as="geometry" />
        </mxCell>
        <mxCell id="S_h4361jQMfFblOt12lK-24" value="判断moments和tasks状态" style="rhombus;whiteSpace=wrap;html=1;rounded=0;" vertex="1" parent="1">
          <mxGeometry x="90" y="560" width="160" height="80" as="geometry" />
        </mxCell>
        <mxCell id="S_h4361jQMfFblOt12lK-30" value="" style="endArrow=classic;html=1;rounded=0;entryX=0;entryY=0.5;entryDx=0;entryDy=0;" edge="1" parent="1" target="S_h4361jQMfFblOt12lK-9">
          <mxGeometry width="50" height="50" relative="1" as="geometry">
            <mxPoint x="61" y="600" as="sourcePoint" />
            <mxPoint x="81" y="460" as="targetPoint" />
            <Array as="points">
              <mxPoint x="61" y="530" />
              <mxPoint x="61" y="460" />
            </Array>
          </mxGeometry>
        </mxCell>
        <mxCell id="S_h4361jQMfFblOt12lK-33" value="step7" style="text;html=1;resizable=0;autosize=1;align=center;verticalAlign=middle;points=[];fillColor=none;strokeColor=none;rounded=0;" vertex="1" parent="1">
          <mxGeometry x="180" y="520" width="40" height="20" as="geometry" />
        </mxCell>
        <mxCell id="S_h4361jQMfFblOt12lK-34" value="" style="endArrow=none;html=1;rounded=0;entryX=0;entryY=0.5;entryDx=0;entryDy=0;" edge="1" parent="1" target="S_h4361jQMfFblOt12lK-24">
          <mxGeometry width="50" height="50" relative="1" as="geometry">
            <mxPoint x="60" y="600" as="sourcePoint" />
            <mxPoint x="350" y="420" as="targetPoint" />
          </mxGeometry>
        </mxCell>
        <mxCell id="S_h4361jQMfFblOt12lK-35" value="running或pending" style="text;html=1;resizable=0;autosize=1;align=center;verticalAlign=middle;points=[];fillColor=none;strokeColor=none;rounded=0;" vertex="1" parent="1">
          <mxGeometry x="25" y="530" width="110" height="20" as="geometry" />
        </mxCell>
        <mxCell id="S_h4361jQMfFblOt12lK-36" value="failed或succeeded" style="text;html=1;resizable=0;autosize=1;align=center;verticalAlign=middle;points=[];fillColor=none;strokeColor=none;rounded=0;" vertex="1" parent="1">
          <mxGeometry x="115" y="670" width="110" height="20" as="geometry" />
        </mxCell>
        <mxCell id="S_h4361jQMfFblOt12lK-39" value="结束" style="whiteSpace=wrap;html=1;rounded=0;" vertex="1" parent="1">
          <mxGeometry x="110" y="730" width="120" height="40" as="geometry" />
        </mxCell>
      </root>
    </mxGraphModel>
  </diagram>
</mxfile>
